# xmcd CD database file
#
# Track frame offsets:
#	150
#	25470
#	43415
#	68697
#
# Disc length: 1152 seconds
#
# Revision: 1
# Processed by: cddbd v1.5PL3 Copyright (c) Steve Scherf et al.
# Submitted via: CDex 1.50
#
DISCID=34047e04
DTITLE=坂本　真綾 - 走る
DYEAR=1998
DGENRE=Pop
TTITLE0=走る
TTITLE1=パイロット
TTITLE2=hashiru(vocal off)
TTITLE3=pilot(vocal off)
EXTD=YEAR: 1998
EXTT0=
EXTT1=
EXTT2=
EXTT3=
PLAYORDER=
